# xmcd
#
# Track frame offsets: 
#        150
#        25954
#        50476
#        69027
#        87429
#        108400
#        133879
#        145343
#        168630
#        193166
#
# Disc length: 2942 seconds
#
# Revision: 0
# Processed by: cddbd v1.5.2PL0 Copyright (c) Steve Scherf et al.
# Submitted via: ExactAudioCopy v1.0b3
#
DISCID=910b7c0a
DTITLE=Thanh Tuyen - Tuyet Pham
DYEAR=1994
DGENRE=
TTITLE0=Phan gai thuyen quyen
TTITLE1=Ngay xua anh noi
TTITLE2=Noi buon gac tro
TTITLE3=Dem dai chien tuyen
TTITLE4=Chuyen tau hoang hon
TTITLE5=Neu ai co hoi
TTITLE6=Noi buon dem dong
TTITLE7=Cac anh ve
TTITLE8=Do chieu
TTITLE9=Biet tra loi sao
EXTD=
EXTT0=
EXTT1=
EXTT2=
EXTT3=
EXTT4=
EXTT5=
EXTT6=
EXTT7=
EXTT8=
EXTT9=
PLAYORDER=
